<svg width="37" height="41" viewBox="0 0 37 41" fill="none" xmlns="http://www.w3.org/2000/svg">
<path d="M32.2162 40.7074H6.21625V0.707397L32.2162 0.707397C34.4162 0.707397 36.2162 2.5074 36.2162 4.7074V36.7074C36.2162 38.9074 34.4162 40.7074 32.2162 40.7074Z" fill="#FF7043"/>
<path d="M4.21625 0.707397H6.21625V40.7074H4.21625C2.01625 40.7074 0.216248 38.9074 0.216248 36.7074L0.216248 4.7074C0.216248 2.5074 2.01625 0.707397 4.21625 0.707397Z" fill="#BF360C"/>
<path d="M20.2162 20.7074C22.4254 20.7074 24.2162 18.9165 24.2162 16.7074C24.2162 14.4983 22.4254 12.7074 20.2162 12.7074C18.0071 12.7074 16.2162 14.4983 16.2162 16.7074C16.2162 18.9165 18.0071 20.7074 20.2162 20.7074Z" fill="#AB300B"/>
<path d="M27.2162 26.7074C27.2162 26.7074 25.3162 22.7074 20.2162 22.7074C15.1162 22.7074 13.2162 26.7074 13.2162 26.7074V28.7074H27.2162V26.7074Z" fill="#AB300B"/>
</svg>
